<mxfile host="app.diagrams.net" agent="Mozilla/5.0 (X11; Ubuntu; Linux x86_64; rv:137.0) Gecko/20100101 Firefox/137.0" version="26.2.15">
  <diagram name="Page-1" id="wkvMPfwWF0B0VFoY-71S">
    <mxGraphModel dx="806" dy="483" grid="1" gridSize="10" guides="1" tooltips="1" connect="1" arrows="1" fold="1" page="1" pageScale="1" pageWidth="850" pageHeight="1100" math="0" shadow="0">
      <root>
        <mxCell id="0" />
        <mxCell id="1" parent="0" />
        <mxCell id="bxEy6PSnByUNLnZKAB45-2" value="" style="shape=table;startSize=0;container=1;collapsible=0;childLayout=tableLayout;fontStyle=0" parent="1" vertex="1">
          <mxGeometry x="110" y="130" width="580" height="480" as="geometry" />
        </mxCell>
        <mxCell id="bxEy6PSnByUNLnZKAB45-3" value="" style="shape=tableRow;horizontal=0;startSize=0;swimlaneHead=0;swimlaneBody=0;strokeColor=inherit;top=0;left=0;bottom=0;right=0;collapsible=0;dropTarget=0;fillColor=none;points=[[0,0.5],[1,0.5]];portConstraint=eastwest;" parent="bxEy6PSnByUNLnZKAB45-2" vertex="1">
          <mxGeometry width="580" height="40" as="geometry" />
        </mxCell>
        <mxCell id="bxEy6PSnByUNLnZKAB45-4" value="Use Case ID" style="shape=partialRectangle;html=1;whiteSpace=wrap;connectable=0;strokeColor=inherit;overflow=hidden;fillColor=none;top=0;left=0;bottom=0;right=0;pointerEvents=1;fontStyle=1" parent="bxEy6PSnByUNLnZKAB45-3" vertex="1">
          <mxGeometry width="110" height="40" as="geometry">
            <mxRectangle width="110" height="40" as="alternateBounds" />
          </mxGeometry>
        </mxCell>
        <mxCell id="bxEy6PSnByUNLnZKAB45-5" value="13" style="shape=partialRectangle;html=1;whiteSpace=wrap;connectable=0;strokeColor=inherit;overflow=hidden;fillColor=none;top=0;left=0;bottom=0;right=0;pointerEvents=1;" parent="bxEy6PSnByUNLnZKAB45-3" vertex="1">
          <mxGeometry x="110" width="50" height="40" as="geometry">
            <mxRectangle width="50" height="40" as="alternateBounds" />
          </mxGeometry>
        </mxCell>
        <mxCell id="bxEy6PSnByUNLnZKAB45-6" value="Use Case name" style="shape=partialRectangle;html=1;whiteSpace=wrap;connectable=0;strokeColor=inherit;overflow=hidden;fillColor=none;top=0;left=0;bottom=0;right=0;pointerEvents=1;fontStyle=1" parent="bxEy6PSnByUNLnZKAB45-3" vertex="1">
          <mxGeometry x="160" width="100" height="40" as="geometry">
            <mxRectangle width="100" height="40" as="alternateBounds" />
          </mxGeometry>
        </mxCell>
        <mxCell id="bxEy6PSnByUNLnZKAB45-7" value="Track Order" style="shape=partialRectangle;html=1;whiteSpace=wrap;connectable=0;strokeColor=inherit;overflow=hidden;fillColor=none;top=0;left=0;bottom=0;right=0;pointerEvents=1;" parent="bxEy6PSnByUNLnZKAB45-3" vertex="1">
          <mxGeometry x="260" width="320" height="40" as="geometry">
            <mxRectangle width="320" height="40" as="alternateBounds" />
          </mxGeometry>
        </mxCell>
        <mxCell id="XiatY8i9MawwiDp1bJaf-1" style="shape=tableRow;horizontal=0;startSize=0;swimlaneHead=0;swimlaneBody=0;strokeColor=inherit;top=0;left=0;bottom=0;right=0;collapsible=0;dropTarget=0;fillColor=none;points=[[0,0.5],[1,0.5]];portConstraint=eastwest;" vertex="1" parent="bxEy6PSnByUNLnZKAB45-2">
          <mxGeometry y="40" width="580" height="40" as="geometry" />
        </mxCell>
        <mxCell id="XiatY8i9MawwiDp1bJaf-2" value="Description" style="shape=partialRectangle;html=1;whiteSpace=wrap;connectable=0;strokeColor=inherit;overflow=hidden;fillColor=none;top=0;left=0;bottom=0;right=0;pointerEvents=1;fontStyle=1" vertex="1" parent="XiatY8i9MawwiDp1bJaf-1">
          <mxGeometry width="110" height="40" as="geometry">
            <mxRectangle width="110" height="40" as="alternateBounds" />
          </mxGeometry>
        </mxCell>
        <mxCell id="XiatY8i9MawwiDp1bJaf-3" value="The customer tracks their order" style="shape=partialRectangle;html=1;whiteSpace=wrap;connectable=0;strokeColor=inherit;overflow=hidden;fillColor=none;top=0;left=0;bottom=0;right=0;pointerEvents=1;rowspan=1;colspan=3;" vertex="1" parent="XiatY8i9MawwiDp1bJaf-1">
          <mxGeometry x="110" width="470" height="40" as="geometry">
            <mxRectangle width="50" height="40" as="alternateBounds" />
          </mxGeometry>
        </mxCell>
        <mxCell id="XiatY8i9MawwiDp1bJaf-4" style="shape=partialRectangle;html=1;whiteSpace=wrap;connectable=0;strokeColor=inherit;overflow=hidden;fillColor=none;top=0;left=0;bottom=0;right=0;pointerEvents=1;" vertex="1" visible="0" parent="XiatY8i9MawwiDp1bJaf-1">
          <mxGeometry x="160" width="100" height="40" as="geometry">
            <mxRectangle width="100" height="40" as="alternateBounds" />
          </mxGeometry>
        </mxCell>
        <mxCell id="XiatY8i9MawwiDp1bJaf-5" style="shape=partialRectangle;html=1;whiteSpace=wrap;connectable=0;strokeColor=inherit;overflow=hidden;fillColor=none;top=0;left=0;bottom=0;right=0;pointerEvents=1;" vertex="1" visible="0" parent="XiatY8i9MawwiDp1bJaf-1">
          <mxGeometry x="260" width="320" height="40" as="geometry">
            <mxRectangle width="320" height="40" as="alternateBounds" />
          </mxGeometry>
        </mxCell>
        <mxCell id="bxEy6PSnByUNLnZKAB45-8" value="" style="shape=tableRow;horizontal=0;startSize=0;swimlaneHead=0;swimlaneBody=0;strokeColor=inherit;top=0;left=0;bottom=0;right=0;collapsible=0;dropTarget=0;fillColor=none;points=[[0,0.5],[1,0.5]];portConstraint=eastwest;" parent="bxEy6PSnByUNLnZKAB45-2" vertex="1">
          <mxGeometry y="80" width="580" height="40" as="geometry" />
        </mxCell>
        <mxCell id="bxEy6PSnByUNLnZKAB45-9" value="Actor" style="shape=partialRectangle;html=1;whiteSpace=wrap;connectable=0;strokeColor=inherit;overflow=hidden;fillColor=none;top=0;left=0;bottom=0;right=0;pointerEvents=1;fontStyle=1" parent="bxEy6PSnByUNLnZKAB45-8" vertex="1">
          <mxGeometry width="110" height="40" as="geometry">
            <mxRectangle width="110" height="40" as="alternateBounds" />
          </mxGeometry>
        </mxCell>
        <mxCell id="bxEy6PSnByUNLnZKAB45-10" value="Customer" style="shape=partialRectangle;html=1;whiteSpace=wrap;connectable=0;strokeColor=inherit;overflow=hidden;fillColor=none;top=0;left=0;bottom=0;right=0;pointerEvents=1;rowspan=1;colspan=3;" parent="bxEy6PSnByUNLnZKAB45-8" vertex="1">
          <mxGeometry x="110" width="470" height="40" as="geometry">
            <mxRectangle width="50" height="40" as="alternateBounds" />
          </mxGeometry>
        </mxCell>
        <mxCell id="bxEy6PSnByUNLnZKAB45-11" value="" style="shape=partialRectangle;html=1;whiteSpace=wrap;connectable=0;strokeColor=inherit;overflow=hidden;fillColor=none;top=0;left=0;bottom=0;right=0;pointerEvents=1;" parent="bxEy6PSnByUNLnZKAB45-8" vertex="1" visible="0">
          <mxGeometry x="160" width="100" height="40" as="geometry">
            <mxRectangle width="100" height="40" as="alternateBounds" />
          </mxGeometry>
        </mxCell>
        <mxCell id="bxEy6PSnByUNLnZKAB45-12" value="" style="shape=partialRectangle;html=1;whiteSpace=wrap;connectable=0;strokeColor=inherit;overflow=hidden;fillColor=none;top=0;left=0;bottom=0;right=0;pointerEvents=1;" parent="bxEy6PSnByUNLnZKAB45-8" vertex="1" visible="0">
          <mxGeometry x="260" width="320" height="40" as="geometry">
            <mxRectangle width="320" height="40" as="alternateBounds" />
          </mxGeometry>
        </mxCell>
        <mxCell id="XiatY8i9MawwiDp1bJaf-6" style="shape=tableRow;horizontal=0;startSize=0;swimlaneHead=0;swimlaneBody=0;strokeColor=inherit;top=0;left=0;bottom=0;right=0;collapsible=0;dropTarget=0;fillColor=none;points=[[0,0.5],[1,0.5]];portConstraint=eastwest;" vertex="1" parent="bxEy6PSnByUNLnZKAB45-2">
          <mxGeometry y="120" width="580" height="40" as="geometry" />
        </mxCell>
        <mxCell id="XiatY8i9MawwiDp1bJaf-7" value="Trigger" style="shape=partialRectangle;html=1;whiteSpace=wrap;connectable=0;strokeColor=inherit;overflow=hidden;fillColor=none;top=0;left=0;bottom=0;right=0;pointerEvents=1;fontStyle=1" vertex="1" parent="XiatY8i9MawwiDp1bJaf-6">
          <mxGeometry width="110" height="40" as="geometry">
            <mxRectangle width="110" height="40" as="alternateBounds" />
          </mxGeometry>
        </mxCell>
        <mxCell id="XiatY8i9MawwiDp1bJaf-8" value="The customer initiates the action to track their order" style="shape=partialRectangle;html=1;whiteSpace=wrap;connectable=0;strokeColor=inherit;overflow=hidden;fillColor=none;top=0;left=0;bottom=0;right=0;pointerEvents=1;rowspan=1;colspan=3;" vertex="1" parent="XiatY8i9MawwiDp1bJaf-6">
          <mxGeometry x="110" width="470" height="40" as="geometry">
            <mxRectangle width="50" height="40" as="alternateBounds" />
          </mxGeometry>
        </mxCell>
        <mxCell id="XiatY8i9MawwiDp1bJaf-9" style="shape=partialRectangle;html=1;whiteSpace=wrap;connectable=0;strokeColor=inherit;overflow=hidden;fillColor=none;top=0;left=0;bottom=0;right=0;pointerEvents=1;" vertex="1" visible="0" parent="XiatY8i9MawwiDp1bJaf-6">
          <mxGeometry x="160" width="100" height="40" as="geometry">
            <mxRectangle width="100" height="40" as="alternateBounds" />
          </mxGeometry>
        </mxCell>
        <mxCell id="XiatY8i9MawwiDp1bJaf-10" style="shape=partialRectangle;html=1;whiteSpace=wrap;connectable=0;strokeColor=inherit;overflow=hidden;fillColor=none;top=0;left=0;bottom=0;right=0;pointerEvents=1;" vertex="1" visible="0" parent="XiatY8i9MawwiDp1bJaf-6">
          <mxGeometry x="260" width="320" height="40" as="geometry">
            <mxRectangle width="320" height="40" as="alternateBounds" />
          </mxGeometry>
        </mxCell>
        <mxCell id="bxEy6PSnByUNLnZKAB45-13" value="" style="shape=tableRow;horizontal=0;startSize=0;swimlaneHead=0;swimlaneBody=0;strokeColor=inherit;top=0;left=0;bottom=0;right=0;collapsible=0;dropTarget=0;fillColor=none;points=[[0,0.5],[1,0.5]];portConstraint=eastwest;" parent="bxEy6PSnByUNLnZKAB45-2" vertex="1">
          <mxGeometry y="160" width="580" height="40" as="geometry" />
        </mxCell>
        <mxCell id="bxEy6PSnByUNLnZKAB45-14" value="Pre-Condition" style="shape=partialRectangle;html=1;whiteSpace=wrap;connectable=0;strokeColor=inherit;overflow=hidden;fillColor=none;top=0;left=0;bottom=0;right=0;pointerEvents=1;fontStyle=1" parent="bxEy6PSnByUNLnZKAB45-13" vertex="1">
          <mxGeometry width="110" height="40" as="geometry">
            <mxRectangle width="110" height="40" as="alternateBounds" />
          </mxGeometry>
        </mxCell>
        <mxCell id="bxEy6PSnByUNLnZKAB45-15" value="&lt;ul style=&quot;&quot;&gt;&lt;li&gt;The customer must be logged in&lt;/li&gt;&lt;/ul&gt;" style="shape=partialRectangle;html=1;whiteSpace=wrap;connectable=0;strokeColor=inherit;overflow=hidden;fillColor=none;top=0;left=0;bottom=0;right=0;pointerEvents=1;rowspan=1;colspan=3;align=left;" parent="bxEy6PSnByUNLnZKAB45-13" vertex="1">
          <mxGeometry x="110" width="470" height="40" as="geometry">
            <mxRectangle width="50" height="40" as="alternateBounds" />
          </mxGeometry>
        </mxCell>
        <mxCell id="bxEy6PSnByUNLnZKAB45-16" value="" style="shape=partialRectangle;html=1;whiteSpace=wrap;connectable=0;strokeColor=inherit;overflow=hidden;fillColor=none;top=0;left=0;bottom=0;right=0;pointerEvents=1;" parent="bxEy6PSnByUNLnZKAB45-13" vertex="1" visible="0">
          <mxGeometry x="160" width="100" height="40" as="geometry">
            <mxRectangle width="100" height="40" as="alternateBounds" />
          </mxGeometry>
        </mxCell>
        <mxCell id="bxEy6PSnByUNLnZKAB45-17" value="" style="shape=partialRectangle;html=1;whiteSpace=wrap;connectable=0;strokeColor=inherit;overflow=hidden;fillColor=none;top=0;left=0;bottom=0;right=0;pointerEvents=1;" parent="bxEy6PSnByUNLnZKAB45-13" vertex="1" visible="0">
          <mxGeometry x="260" width="320" height="40" as="geometry">
            <mxRectangle width="320" height="40" as="alternateBounds" />
          </mxGeometry>
        </mxCell>
        <mxCell id="XiatY8i9MawwiDp1bJaf-11" style="shape=tableRow;horizontal=0;startSize=0;swimlaneHead=0;swimlaneBody=0;strokeColor=inherit;top=0;left=0;bottom=0;right=0;collapsible=0;dropTarget=0;fillColor=none;points=[[0,0.5],[1,0.5]];portConstraint=eastwest;" vertex="1" parent="bxEy6PSnByUNLnZKAB45-2">
          <mxGeometry y="200" width="580" height="40" as="geometry" />
        </mxCell>
        <mxCell id="XiatY8i9MawwiDp1bJaf-12" value="Post-Condition" style="shape=partialRectangle;html=1;whiteSpace=wrap;connectable=0;strokeColor=inherit;overflow=hidden;fillColor=none;top=0;left=0;bottom=0;right=0;pointerEvents=1;fontStyle=1" vertex="1" parent="XiatY8i9MawwiDp1bJaf-11">
          <mxGeometry width="110" height="40" as="geometry">
            <mxRectangle width="110" height="40" as="alternateBounds" />
          </mxGeometry>
        </mxCell>
        <mxCell id="XiatY8i9MawwiDp1bJaf-13" value="&lt;div align=&quot;left&quot;&gt;&lt;ul&gt;&lt;li&gt;The customer is able to view and track their existing orders.&lt;/li&gt;&lt;/ul&gt;&lt;/div&gt;" style="shape=partialRectangle;html=1;whiteSpace=wrap;connectable=0;strokeColor=inherit;overflow=hidden;fillColor=none;top=0;left=0;bottom=0;right=0;pointerEvents=1;rowspan=1;colspan=3;align=left;" vertex="1" parent="XiatY8i9MawwiDp1bJaf-11">
          <mxGeometry x="110" width="470" height="40" as="geometry">
            <mxRectangle width="50" height="40" as="alternateBounds" />
          </mxGeometry>
        </mxCell>
        <mxCell id="XiatY8i9MawwiDp1bJaf-14" style="shape=partialRectangle;html=1;whiteSpace=wrap;connectable=0;strokeColor=inherit;overflow=hidden;fillColor=none;top=0;left=0;bottom=0;right=0;pointerEvents=1;" vertex="1" visible="0" parent="XiatY8i9MawwiDp1bJaf-11">
          <mxGeometry x="160" width="100" height="40" as="geometry">
            <mxRectangle width="100" height="40" as="alternateBounds" />
          </mxGeometry>
        </mxCell>
        <mxCell id="XiatY8i9MawwiDp1bJaf-15" style="shape=partialRectangle;html=1;whiteSpace=wrap;connectable=0;strokeColor=inherit;overflow=hidden;fillColor=none;top=0;left=0;bottom=0;right=0;pointerEvents=1;" vertex="1" visible="0" parent="XiatY8i9MawwiDp1bJaf-11">
          <mxGeometry x="260" width="320" height="40" as="geometry">
            <mxRectangle width="320" height="40" as="alternateBounds" />
          </mxGeometry>
        </mxCell>
        <mxCell id="bxEy6PSnByUNLnZKAB45-18" value="" style="shape=tableRow;horizontal=0;startSize=0;swimlaneHead=0;swimlaneBody=0;strokeColor=inherit;top=0;left=0;bottom=0;right=0;collapsible=0;dropTarget=0;fillColor=none;points=[[0,0.5],[1,0.5]];portConstraint=eastwest;" parent="bxEy6PSnByUNLnZKAB45-2" vertex="1">
          <mxGeometry y="240" width="580" height="40" as="geometry" />
        </mxCell>
        <mxCell id="bxEy6PSnByUNLnZKAB45-19" value="Basic Flow" style="shape=partialRectangle;html=1;whiteSpace=wrap;connectable=0;strokeColor=inherit;overflow=hidden;fillColor=none;top=0;left=0;bottom=0;right=0;pointerEvents=1;fontStyle=1;rowspan=5;colspan=1;" parent="bxEy6PSnByUNLnZKAB45-18" vertex="1">
          <mxGeometry width="110" height="200" as="geometry">
            <mxRectangle width="110" height="40" as="alternateBounds" />
          </mxGeometry>
        </mxCell>
        <mxCell id="bxEy6PSnByUNLnZKAB45-20" value="Step" style="shape=partialRectangle;html=1;whiteSpace=wrap;connectable=0;strokeColor=inherit;overflow=hidden;fillColor=none;top=0;left=0;bottom=0;right=0;pointerEvents=1;" parent="bxEy6PSnByUNLnZKAB45-18" vertex="1">
          <mxGeometry x="110" width="50" height="40" as="geometry">
            <mxRectangle width="50" height="40" as="alternateBounds" />
          </mxGeometry>
        </mxCell>
        <mxCell id="bxEy6PSnByUNLnZKAB45-21" value="Performed by" style="shape=partialRectangle;html=1;whiteSpace=wrap;connectable=0;strokeColor=inherit;overflow=hidden;fillColor=none;top=0;left=0;bottom=0;right=0;pointerEvents=1;" parent="bxEy6PSnByUNLnZKAB45-18" vertex="1">
          <mxGeometry x="160" width="100" height="40" as="geometry">
            <mxRectangle width="100" height="40" as="alternateBounds" />
          </mxGeometry>
        </mxCell>
        <mxCell id="bxEy6PSnByUNLnZKAB45-22" value="Action" style="shape=partialRectangle;html=1;whiteSpace=wrap;connectable=0;strokeColor=inherit;overflow=hidden;fillColor=none;top=0;left=0;bottom=0;right=0;pointerEvents=1;" parent="bxEy6PSnByUNLnZKAB45-18" vertex="1">
          <mxGeometry x="260" width="320" height="40" as="geometry">
            <mxRectangle width="320" height="40" as="alternateBounds" />
          </mxGeometry>
        </mxCell>
        <mxCell id="bxEy6PSnByUNLnZKAB45-23" value="" style="shape=tableRow;horizontal=0;startSize=0;swimlaneHead=0;swimlaneBody=0;strokeColor=inherit;top=0;left=0;bottom=0;right=0;collapsible=0;dropTarget=0;fillColor=none;points=[[0,0.5],[1,0.5]];portConstraint=eastwest;" parent="bxEy6PSnByUNLnZKAB45-2" vertex="1">
          <mxGeometry y="280" width="580" height="40" as="geometry" />
        </mxCell>
        <mxCell id="bxEy6PSnByUNLnZKAB45-24" value="" style="shape=partialRectangle;html=1;whiteSpace=wrap;connectable=0;strokeColor=inherit;overflow=hidden;fillColor=none;top=0;left=0;bottom=0;right=0;pointerEvents=1;fontStyle=1" parent="bxEy6PSnByUNLnZKAB45-23" vertex="1" visible="0">
          <mxGeometry width="110" height="40" as="geometry">
            <mxRectangle width="110" height="40" as="alternateBounds" />
          </mxGeometry>
        </mxCell>
        <mxCell id="bxEy6PSnByUNLnZKAB45-25" value="1" style="shape=partialRectangle;html=1;whiteSpace=wrap;connectable=0;strokeColor=inherit;overflow=hidden;fillColor=none;top=0;left=0;bottom=0;right=0;pointerEvents=1;" parent="bxEy6PSnByUNLnZKAB45-23" vertex="1">
          <mxGeometry x="110" width="50" height="40" as="geometry">
            <mxRectangle width="50" height="40" as="alternateBounds" />
          </mxGeometry>
        </mxCell>
        <mxCell id="bxEy6PSnByUNLnZKAB45-26" value="Customer" style="shape=partialRectangle;html=1;whiteSpace=wrap;connectable=0;strokeColor=inherit;overflow=hidden;fillColor=none;top=0;left=0;bottom=0;right=0;pointerEvents=1;" parent="bxEy6PSnByUNLnZKAB45-23" vertex="1">
          <mxGeometry x="160" width="100" height="40" as="geometry">
            <mxRectangle width="100" height="40" as="alternateBounds" />
          </mxGeometry>
        </mxCell>
        <mxCell id="bxEy6PSnByUNLnZKAB45-27" value="Clicks on the user icon" style="shape=partialRectangle;html=1;whiteSpace=wrap;connectable=0;strokeColor=inherit;overflow=hidden;fillColor=none;top=0;left=0;bottom=0;right=0;pointerEvents=1;fontStyle=0" parent="bxEy6PSnByUNLnZKAB45-23" vertex="1">
          <mxGeometry x="260" width="320" height="40" as="geometry">
            <mxRectangle width="320" height="40" as="alternateBounds" />
          </mxGeometry>
        </mxCell>
        <mxCell id="bxEy6PSnByUNLnZKAB45-28" value="" style="shape=tableRow;horizontal=0;startSize=0;swimlaneHead=0;swimlaneBody=0;strokeColor=inherit;top=0;left=0;bottom=0;right=0;collapsible=0;dropTarget=0;fillColor=none;points=[[0,0.5],[1,0.5]];portConstraint=eastwest;" parent="bxEy6PSnByUNLnZKAB45-2" vertex="1">
          <mxGeometry y="320" width="580" height="40" as="geometry" />
        </mxCell>
        <mxCell id="bxEy6PSnByUNLnZKAB45-29" value="" style="shape=partialRectangle;html=1;whiteSpace=wrap;connectable=0;strokeColor=inherit;overflow=hidden;fillColor=none;top=0;left=0;bottom=0;right=0;pointerEvents=1;fontStyle=1" parent="bxEy6PSnByUNLnZKAB45-28" vertex="1" visible="0">
          <mxGeometry width="110" height="40" as="geometry">
            <mxRectangle width="110" height="40" as="alternateBounds" />
          </mxGeometry>
        </mxCell>
        <mxCell id="bxEy6PSnByUNLnZKAB45-30" value="2" style="shape=partialRectangle;html=1;whiteSpace=wrap;connectable=0;strokeColor=inherit;overflow=hidden;fillColor=none;top=0;left=0;bottom=0;right=0;pointerEvents=1;" parent="bxEy6PSnByUNLnZKAB45-28" vertex="1">
          <mxGeometry x="110" width="50" height="40" as="geometry">
            <mxRectangle width="50" height="40" as="alternateBounds" />
          </mxGeometry>
        </mxCell>
        <mxCell id="bxEy6PSnByUNLnZKAB45-31" value="System" style="shape=partialRectangle;html=1;whiteSpace=wrap;connectable=0;strokeColor=inherit;overflow=hidden;fillColor=none;top=0;left=0;bottom=0;right=0;pointerEvents=1;" parent="bxEy6PSnByUNLnZKAB45-28" vertex="1">
          <mxGeometry x="160" width="100" height="40" as="geometry">
            <mxRectangle width="100" height="40" as="alternateBounds" />
          </mxGeometry>
        </mxCell>
        <mxCell id="bxEy6PSnByUNLnZKAB45-32" value="Displays the user function menu" style="shape=partialRectangle;html=1;whiteSpace=wrap;connectable=0;strokeColor=inherit;overflow=hidden;fillColor=none;top=0;left=0;bottom=0;right=0;pointerEvents=1;fontStyle=0" parent="bxEy6PSnByUNLnZKAB45-28" vertex="1">
          <mxGeometry x="260" width="320" height="40" as="geometry">
            <mxRectangle width="320" height="40" as="alternateBounds" />
          </mxGeometry>
        </mxCell>
        <mxCell id="bxEy6PSnByUNLnZKAB45-33" value="" style="shape=tableRow;horizontal=0;startSize=0;swimlaneHead=0;swimlaneBody=0;strokeColor=inherit;top=0;left=0;bottom=0;right=0;collapsible=0;dropTarget=0;fillColor=none;points=[[0,0.5],[1,0.5]];portConstraint=eastwest;" parent="bxEy6PSnByUNLnZKAB45-2" vertex="1">
          <mxGeometry y="360" width="580" height="40" as="geometry" />
        </mxCell>
        <mxCell id="bxEy6PSnByUNLnZKAB45-34" value="" style="shape=partialRectangle;html=1;whiteSpace=wrap;connectable=0;strokeColor=inherit;overflow=hidden;fillColor=none;top=0;left=0;bottom=0;right=0;pointerEvents=1;fontStyle=1" parent="bxEy6PSnByUNLnZKAB45-33" vertex="1" visible="0">
          <mxGeometry width="110" height="40" as="geometry">
            <mxRectangle width="110" height="40" as="alternateBounds" />
          </mxGeometry>
        </mxCell>
        <mxCell id="bxEy6PSnByUNLnZKAB45-35" value="3" style="shape=partialRectangle;html=1;whiteSpace=wrap;connectable=0;strokeColor=inherit;overflow=hidden;fillColor=none;top=0;left=0;bottom=0;right=0;pointerEvents=1;" parent="bxEy6PSnByUNLnZKAB45-33" vertex="1">
          <mxGeometry x="110" width="50" height="40" as="geometry">
            <mxRectangle width="50" height="40" as="alternateBounds" />
          </mxGeometry>
        </mxCell>
        <mxCell id="bxEy6PSnByUNLnZKAB45-36" value="Customer" style="shape=partialRectangle;html=1;whiteSpace=wrap;connectable=0;strokeColor=inherit;overflow=hidden;fillColor=none;top=0;left=0;bottom=0;right=0;pointerEvents=1;" parent="bxEy6PSnByUNLnZKAB45-33" vertex="1">
          <mxGeometry x="160" width="100" height="40" as="geometry">
            <mxRectangle width="100" height="40" as="alternateBounds" />
          </mxGeometry>
        </mxCell>
        <mxCell id="bxEy6PSnByUNLnZKAB45-37" value="Selects the &lt;span data-end=&quot;230&quot; data-start=&quot;217&quot;&gt;&quot;My Order&quot;&lt;/span&gt; option" style="shape=partialRectangle;html=1;whiteSpace=wrap;connectable=0;strokeColor=inherit;overflow=hidden;fillColor=none;top=0;left=0;bottom=0;right=0;pointerEvents=1;" parent="bxEy6PSnByUNLnZKAB45-33" vertex="1">
          <mxGeometry x="260" width="320" height="40" as="geometry">
            <mxRectangle width="320" height="40" as="alternateBounds" />
          </mxGeometry>
        </mxCell>
        <mxCell id="bxEy6PSnByUNLnZKAB45-38" value="" style="shape=tableRow;horizontal=0;startSize=0;swimlaneHead=0;swimlaneBody=0;strokeColor=inherit;top=0;left=0;bottom=0;right=0;collapsible=0;dropTarget=0;fillColor=none;points=[[0,0.5],[1,0.5]];portConstraint=eastwest;" parent="bxEy6PSnByUNLnZKAB45-2" vertex="1">
          <mxGeometry y="400" width="580" height="40" as="geometry" />
        </mxCell>
        <mxCell id="bxEy6PSnByUNLnZKAB45-39" value="" style="shape=partialRectangle;html=1;whiteSpace=wrap;connectable=0;strokeColor=inherit;overflow=hidden;fillColor=none;top=0;left=0;bottom=0;right=0;pointerEvents=1;fontStyle=1" parent="bxEy6PSnByUNLnZKAB45-38" vertex="1" visible="0">
          <mxGeometry width="110" height="40" as="geometry">
            <mxRectangle width="110" height="40" as="alternateBounds" />
          </mxGeometry>
        </mxCell>
        <mxCell id="bxEy6PSnByUNLnZKAB45-40" value="4" style="shape=partialRectangle;html=1;whiteSpace=wrap;connectable=0;strokeColor=inherit;overflow=hidden;fillColor=none;top=0;left=0;bottom=0;right=0;pointerEvents=1;" parent="bxEy6PSnByUNLnZKAB45-38" vertex="1">
          <mxGeometry x="110" width="50" height="40" as="geometry">
            <mxRectangle width="50" height="40" as="alternateBounds" />
          </mxGeometry>
        </mxCell>
        <mxCell id="bxEy6PSnByUNLnZKAB45-41" value="System" style="shape=partialRectangle;html=1;whiteSpace=wrap;connectable=0;strokeColor=inherit;overflow=hidden;fillColor=none;top=0;left=0;bottom=0;right=0;pointerEvents=1;" parent="bxEy6PSnByUNLnZKAB45-38" vertex="1">
          <mxGeometry x="160" width="100" height="40" as="geometry">
            <mxRectangle width="100" height="40" as="alternateBounds" />
          </mxGeometry>
        </mxCell>
        <mxCell id="bxEy6PSnByUNLnZKAB45-42" value="Retrieves and displays the customer’s order history." style="shape=partialRectangle;html=1;whiteSpace=wrap;connectable=0;strokeColor=inherit;overflow=hidden;fillColor=none;top=0;left=0;bottom=0;right=0;pointerEvents=1;" parent="bxEy6PSnByUNLnZKAB45-38" vertex="1">
          <mxGeometry x="260" width="320" height="40" as="geometry">
            <mxRectangle width="320" height="40" as="alternateBounds" />
          </mxGeometry>
        </mxCell>
        <mxCell id="bxEy6PSnByUNLnZKAB45-53" style="shape=tableRow;horizontal=0;startSize=0;swimlaneHead=0;swimlaneBody=0;strokeColor=inherit;top=0;left=0;bottom=0;right=0;collapsible=0;dropTarget=0;fillColor=none;points=[[0,0.5],[1,0.5]];portConstraint=eastwest;" parent="bxEy6PSnByUNLnZKAB45-2" vertex="1">
          <mxGeometry y="440" width="580" height="40" as="geometry" />
        </mxCell>
        <mxCell id="bxEy6PSnByUNLnZKAB45-54" value="Exception Flow" style="shape=partialRectangle;html=1;whiteSpace=wrap;connectable=0;strokeColor=inherit;overflow=hidden;fillColor=none;top=0;left=0;bottom=0;right=0;pointerEvents=1;fontStyle=1" parent="bxEy6PSnByUNLnZKAB45-53" vertex="1">
          <mxGeometry width="110" height="40" as="geometry">
            <mxRectangle width="110" height="40" as="alternateBounds" />
          </mxGeometry>
        </mxCell>
        <mxCell id="bxEy6PSnByUNLnZKAB45-55" value="4a" style="shape=partialRectangle;html=1;whiteSpace=wrap;connectable=0;strokeColor=inherit;overflow=hidden;fillColor=none;top=0;left=0;bottom=0;right=0;pointerEvents=1;" parent="bxEy6PSnByUNLnZKAB45-53" vertex="1">
          <mxGeometry x="110" width="50" height="40" as="geometry">
            <mxRectangle width="50" height="40" as="alternateBounds" />
          </mxGeometry>
        </mxCell>
        <mxCell id="bxEy6PSnByUNLnZKAB45-56" value="System" style="shape=partialRectangle;html=1;whiteSpace=wrap;connectable=0;strokeColor=inherit;overflow=hidden;fillColor=none;top=0;left=0;bottom=0;right=0;pointerEvents=1;" parent="bxEy6PSnByUNLnZKAB45-53" vertex="1">
          <mxGeometry x="160" width="100" height="40" as="geometry">
            <mxRectangle width="100" height="40" as="alternateBounds" />
          </mxGeometry>
        </mxCell>
        <mxCell id="bxEy6PSnByUNLnZKAB45-57" value="If order retrieval fails: shows an empty order list" style="shape=partialRectangle;html=1;whiteSpace=wrap;connectable=0;strokeColor=inherit;overflow=hidden;fillColor=none;top=0;left=0;bottom=0;right=0;pointerEvents=1;" parent="bxEy6PSnByUNLnZKAB45-53" vertex="1">
          <mxGeometry x="260" width="320" height="40" as="geometry">
            <mxRectangle width="320" height="40" as="alternateBounds" />
          </mxGeometry>
        </mxCell>
      </root>
    </mxGraphModel>
  </diagram>
</mxfile>
